# xmcd
#
# Track frame offsets:
#	150
#	17286
#	38562
#	56179
#	75031
#	96633
#	116518
#	132570
#	153620
#	179279
#	196966
#	213860
#	233589
#	250796
#	272940
#
# Disc length: 3898 seconds
#
# Revision: 1
# Processed by: cddbd v1.4PL0 Copyright (c) Steve Scherf et al.
# Submitted via: EasyCDDAExtractor 5.0.6
#
DISCID=c30f380f
DTITLE=金海心 - 心感觉
DYEAR=2002
DGENRE=Pop
TTITLE0=心感觉
TTITLE1=越来越迷惑
TTITLE2=天天洗头歌
TTITLE3=那么骄傲
TTITLE4=那时的天空
TTITLE5=依依不舍
TTITLE6=把耳朵叫醒
TTITLE7=猫咪森林
TTITLE8=睡不着的海
TTITLE9=9月16日晴
TTITLE10=毫无保留
TTITLE11=翅膀
TTITLE12=来不及
TTITLE13=昨天晚上的分手电话
TTITLE14=把鞋子甩掉
EXTD=
EXTT0=
EXTT1=
EXTT2=
EXTT3=
EXTT4=
EXTT5=
EXTT6=
EXTT7=
EXTT8=
EXTT9=
EXTT10=
EXTT11=
EXTT12=
EXTT13=
EXTT14=
PLAYORDER=
